<?xml version="1.0" encoding="UTF-8"?><svg id="Layer_1" xmlns="http://www.w3.org/2000/svg" viewBox="0 0 229.95 228.96"><defs><style>.cls-1{fill:#fff;font-size:200px;}.cls-1,.cls-2{font-family:Angelwish-Regular, 'Angel wish';}.cls-2{fill:#231f20;font-size:12px;}.cls-3{fill:#621d0c;opacity:.47;}.cls-3,.cls-4,.cls-5,.cls-6,.cls-7,.cls-8,.cls-9,.cls-10{stroke-width:0px;}.cls-11{fill:#dc7e2a;stroke:#441b0e;stroke-miterlimit:10;stroke-width:2.82px;}.cls-4{fill:#007bae;opacity:.23;}.cls-5{fill:#f6fbfd;}.cls-6{fill:#2f3291;}.cls-7{fill:#24265d;}.cls-8{fill:#a6dce5;}.cls-9{fill:#faf1c8;}.cls-10{fill:#fdb84f;}</style></defs><ellipse class="cls-6" cx="111.24" cy="114.48" rx="109.76" ry="109.28"/><ellipse class="cls-7" cx="119.79" cy="132.31" rx="70.73" ry="74.22"/><path class="cls-4" d="m206.95,52.52c1.13,2.07,10.35,19.71,1.5,37.14-.69,1.35-8.27,15.75-23.56,19.31-20.31,4.73-29.53-15.42-67.28-28.02-11.92-3.98-30.68-10-53.53-5.82-9.07,1.66-31.49,5.76-43.2,24.08-7.46,11.68-7.1,23.69-6.69,32.87,1.23,27.86,17.09,55.85,41.7,73.15,29.04,20.42,65.89,22.79,68.9,16.21,2.61-5.71-21.73-14.9-22.98-34.92-.65-10.39,5.01-22.3,14.25-28.92,20.43-14.63,42.8,7.78,70.49-5.88,18.62-9.19,26.73-28.31,28.42-32.59,4.98-12.61,4.41-23.61,4.04-29.51-1.1-17.54-7.93-30.53-12.05-37.12Z"/><text class="cls-2" transform="translate(100.7 36.94)"><tspan x="0" y="0">Lorem </tspan><tspan x="-34.76" y="14.4">ipsum dolor sit amet, </tspan><tspan x="-49.63" y="28.8">consectetuer </tspan><tspan x="-59.27" y="43.2">adipiscing elit, </tspan><tspan x="-65.43" y="57.6">sed diam </tspan><tspan x="-68.27" y="72">nonummy </tspan><tspan x="-66.85" y="86.4">nibh </tspan><tspan x="-62.67" y="100.8">euism</tspan></text><text class="cls-1" transform="translate(47.56 170.88) scale(1.19 1)"><tspan x="0" y="0">K</tspan></text><ellipse class="cls-8" cx="82.25" cy="59.88" rx="22.07" ry="15.64" transform="translate(-17.59 79.41) rotate(-47.12)"/><path class="cls-5" d="m88.67,67.98c-5.92,5.46-13.59,6.26-17.14,1.78-3.55-4.48-1.63-12.53,4.29-17.99,5.92-5.46,13.59-6.26,17.14-1.78,3.55,4.48,1.63,12.53-4.29,17.99Z"/><path class="cls-8" d="m62.14,86.89c-.19,7.08-4.33,12.72-9.24,12.59-4.91-.13-8.74-5.97-8.55-13.05.19-7.08,4.33-12.72,9.24-12.59,4.91.13,8.74,5.97,8.55,13.05Z"/><path class="cls-5" d="m58.94,87.35c-.11,4.46-2.75,7.77-5.9,7.39-3.14-.38-5.6-4.31-5.48-8.78.11-4.46,2.75-7.77,5.9-7.39s5.6,4.31,5.48,8.78Z"/><path class="cls-11" d="m114.97,1.41C52.26,1.41,1.41,52.03,1.41,114.48s50.84,113.07,113.56,113.07,113.56-50.62,113.56-113.07S177.69,1.41,114.97,1.41Zm-.51,214.05c-55.93-.47-100.89-45.9-100.42-101.47S60.25,13.75,116.18,14.22c55.93.47,100.89,45.9,100.42,101.47-.47,55.57-46.2,100.24-102.13,99.76Z"/><path class="cls-10" d="m113.36,9.3c.1,1.11-11.7,1.68-26.2,6.04-5.57,1.68-26.89,8.31-44.3,24.16-20.07,18.28-25.32,40.06-26.67,39.49-1.17-.5,2.01-17.27,13.34-33.45,1.7-2.42,21.58-29.94,56.68-36.24,13.78-2.47,27.04-1.17,27.15,0Z"/><path class="cls-9" d="m70.49,18.36c.3.67-2.66,2.26-10,6.97-14.85,9.53-18.61,13.23-19.29,12.54-.96-.96,4.76-9.99,14.29-15.33,6.8-3.82,14.55-5.2,15-4.18Z"/><path class="cls-9" d="m71.84,15.21c-.6.79-1.18,2.21-.45,2.71,1.72,1.19,10.28-3.15,9.82-4.4-.38-1.02-7.14-1.23-9.37,1.69Z"/><path class="cls-3" d="m220.52,95.02c-.55.02,1.12,12.51-.71,27.18-1.16,9.27-5.89,47.06-39.29,73.17-25.97,20.3-59.43,25.84-86.45,20.21-37.04-7.71-59.24-35.82-60.73-34.15-1.24,1.39,12.96,22.09,37.87,34.15,33.25,16.1,79.68,13.91,112.88-11.85,27.24-21.13,35.09-49.99,37.15-59.24,5.69-25.55.05-49.51-.71-49.48Z"/></svg>